<svg id="Layer_1" data-name="Layer 1" xmlns="http://www.w3.org/2000/svg" viewBox="0 0 1210.52 176.99"><path class="cls-1" d="M170.77,0H126.43a6.38,6.38,0,0,0-6.37,6.36V60.67L85.25,15A37.93,37.93,0,0,0,55.06,0H20.65A20.66,20.66,0,0,0,0,20.65V156.34A20.65,20.65,0,0,0,20.65,177H65.12a6.36,6.36,0,0,0,6.36-6.36V115.76l34.62,46.08A38,38,0,0,0,136.44,177h34.33a20.65,20.65,0,0,0,20.65-20.65V20.65A20.66,20.66,0,0,0,170.77,0ZM59.37,164.16H20.51A8.16,8.16,0,0,1,12.35,156V38.52l47,61.84Zm112.13,0H136.3a25.46,25.46,0,0,1-20.21-10L15.27,22.56a6.13,6.13,0,0,1,4.86-9.85H55.2a25.46,25.46,0,0,1,20.2,10l101,131.64A6.13,6.13,0,0,1,171.5,164.16ZM179.19,138l-47-61.59V12.71H171a8.16,8.16,0,0,1,8.16,8.16Z"/><path class="cls-1" d="M428.06,161.81H399.82l-70.3-80.43v80.43H293.08V15.18h27.81l70.73,82.59V15.18h36.44Z"/><path class="cls-1" d="M541.79,119.12l-.19.64H467.4c2.8,9.49,10.13,16.82,23.5,16.82,7.33,0,12.94-2.8,16-7.54h34.5c-5,21.56-25,35.14-50.89,35.14-34.28,0-57.14-22.85-57.14-54.77,0-31.69,22.21-54.55,55.63-54.55,30.41,0,53.48,20.91,53.48,52.4A72.58,72.58,0,0,1,541.79,119.12ZM467,99.28h42.69c-1.94-11.43-9.48-17.47-20.7-17.47C477.1,81.81,469.56,88.72,467,99.28Z"/><path class="cls-1" d="M661.73,161.81H626.79V156a52.18,52.18,0,0,1-28.67,8c-28.25,0-52-23.51-52-54.56,0-31.27,23.72-54.55,52-54.55a52.18,52.18,0,0,1,28.67,8V57.23h34.94Zm-34.94-36.23V93.24c-6.46-7.55-14-9.92-21.77-9.92-14.24,0-24.59,11.65-24.59,26.09s10.35,25.88,24.59,25.88C612.78,135.29,620.33,133.13,626.79,125.58Z"/><path class="cls-1" d="M740.77,88.72c-17,.64-27.82,5.17-36,13.36v59.73H669.82V57.23h34.94V68.44c9.27-8,20.48-12.94,36-12.94Z"/><path class="cls-1" d="M855,47.31V15.19H745.68V161.82h36.46V110.07h54.68v-.64a63.28,63.28,0,0,1,7.82-31.08h-62.5v-31Z"/><path class="cls-1" d="M1031.11,88.72c-17,.64-27.82,5.17-36,13.36v59.73H960.16V57.23h34.93V68.44c9.28-8,20.49-12.94,36-12.94Z"/><path class="cls-1" d="M1210.52,102.08v59.73h-35.15V107.69c0-14.88-7.11-22-18.76-22-5.39,0-10.78,2.37-16,8.63.22,2.58.44,5.17.44,7.76v59.73h-34.94V107.69c0-14.88-7.33-22-18.76-22-5.39,0-10.56,2.59-15.74,9.28v66.84h-34.93V57.23h34.93v6.25c7.12-6,14.45-9.48,26.1-9.48,13.15,0,24.36,5,32.12,14,11-9.7,21.57-14,37.09-14C1192,54,1210.52,72.33,1210.52,102.08Z"/><path class="cls-1" d="M955.86,109.41c0,31.92-23.72,55.64-56.71,55.64s-56.71-23.72-56.71-55.64c0-31.48,23.72-54.55,56.71-54.55S955.86,77.93,955.86,109.41Zm-33,.22c0-13.59-9.49-24.58-23.5-24.58-14.23,0-23.72,11-23.72,24.58,0,14,9.49,25.23,23.72,25.23C913.38,134.86,922.87,123.65,922.87,109.63Z"/></svg>
