<?xml version="1.0" encoding="UTF-8"?> <svg xmlns="http://www.w3.org/2000/svg" viewBox="0 0 183.78 37.14"><defs><style>.cls-1{fill:#2165e3;}.cls-2{fill:#394662;}</style></defs><title>Accel_Logo_Polaris</title><g id="Layer_2" data-name="Layer 2"><g id="Web"><path class="cls-1" d="M23.72.42,21,10.91h-3.7L14.34.42A.33.33,0,0,1,14.57,0H17a.33.33,0,0,1,.32.26l1.81,8.53L20.82.27A.32.32,0,0,1,21.14,0H23.4a.33.33,0,0,1,.33.33A.28.28,0,0,1,23.72.42Z"></path><path class="cls-1" d="M36.1,10.86,26.2,15.3l-2.33-2.88,6.31-8.86a.34.34,0,0,1,.47-.08l.07.06,1.47,1.83a.33.33,0,0,1,0,.42l-5.48,6.77L34.38,8.5a.34.34,0,0,1,.42.09l1.42,1.75a.34.34,0,0,1,0,.47Z"></path><path class="cls-1" d="M35.59,27.13,26,22.07l.83-3.61L37.7,18a.33.33,0,0,1,.35.32.28.28,0,0,1,0,.09l-.53,2.29a.33.33,0,0,1-.33.26l-8.71-.15,7.92,3.54a.33.33,0,0,1,.19.38l-.5,2.2a.33.33,0,0,1-.4.25A.16.16,0,0,1,35.59,27.13Z"></path><path class="cls-1" d="M22.67,36.87l-2.1-10.65L23.9,24.6l7.21,8.15a.33.33,0,0,1,0,.47l-.08.05-2.11,1a.33.33,0,0,1-.41-.1l-5.36-6.87,2.23,8.4a.32.32,0,0,1-.18.38l-2,1A.33.33,0,0,1,22.7,37Z"></path><path class="cls-1" d="M6.94,32.75,14,24.53l3.32,1.63-2,10.7a.34.34,0,0,1-.39.27l-.09,0-2.11-1a.34.34,0,0,1-.18-.38l2.11-8.46L9.48,34.16a.34.34,0,0,1-.41.1l-2-1a.35.35,0,0,1-.15-.45A.18.18,0,0,1,6.94,32.75Z"></path><path class="cls-1" d="M.35,18l10.83.35L12,21.93l-9.56,5.2A.34.34,0,0,1,2,27a.11.11,0,0,1,0-.08l-.53-2.29a.33.33,0,0,1,.18-.38l7.9-3.68-8.68.28a.32.32,0,0,1-.33-.26L0,18.38A.33.33,0,0,1,.26,18Z"></path><path class="cls-1" d="M7.87,3.55l6.4,8.76-2.33,2.88L2,10.85a.34.34,0,0,1-.17-.44l.05-.07L3.32,8.51a.34.34,0,0,1,.41-.09l7.76,4L5.92,5.72a.35.35,0,0,1,0-.43L7.34,3.54a.33.33,0,0,1,.47,0Z"></path><path class="cls-2" d="M67.55,15.75c0,4.92-3.59,8-9.32,8H55.38V29.1H50.15V8h8.48C64.15,8,67.55,11,67.55,15.75Zm-5.2,0c0-1.89-1.52-3.13-3.81-3.13H55.38v6.54h3.16C60.83,19.16,62.35,17.83,62.35,15.75Z"></path><path class="cls-2" d="M91.59,18.57A11.15,11.15,0,1,1,80.44,7.63,10.86,10.86,0,0,1,91.59,18.57Zm-5.29,0a5.86,5.86,0,1,0-11.71,0,5.86,5.86,0,1,0,11.71,0Z"></path><path class="cls-2" d="M110.24,24.42V29.1H94.6V8h5.23V24.42Z"></path><path class="cls-2" d="M126.9,25.48H118l-1.39,3.62H111L120,8h5l8.93,21.06h-5.58Zm-1.7-4.37L122.44,14l-2.75,7.09Z"></path><path class="cls-2" d="M149.15,29.1l-4-6.1h-4v6.1h-5.23V8h9.2c5.23,0,8.73,2.85,8.73,7.4a7,7,0,0,1-3.56,6.29l5,7.37Zm-8-10.81H145c2,0,3.59-1.12,3.59-2.85S147,12.65,145,12.65h-3.88Z"></path><path class="cls-2" d="M162.65,8V29.1h-5.23V8Z"></path><path class="cls-2" d="M183.75,14.57h-5.27c-.28-1.58-1.24-2.66-3.47-2.66-1.86,0-3.07.71-3.07,2.07,0,1.21.87,1.74,2.54,2.08l3,.62c3.87.8,6.35,2.38,6.35,6,0,4.21-3.47,6.81-8.74,6.81-4.74,0-9-2.26-9.51-7.46h5.27c.34,1.86,1.92,3,4.4,3,1.85,0,3-.71,3-1.89,0-.74-.4-1.51-2.23-1.85l-3.47-.75c-4.15-.9-6.1-2.79-6.1-6.13,0-4.21,3.41-6.82,8.36-6.82C178.14,7.63,183.22,8.9,183.75,14.57Z"></path></g></g></svg> 